<svg width="160" height="123" viewBox="0 0 160 123" fill="none" xmlns="http://www.w3.org/2000/svg">
<path d="M95.4014 120.003V107.803H121.594V20.1553H100.544V10.6843C111.149 8.9185 118.702 6.18955 124.969 2.33692H136.217V107.803H160V120.003H95.4014Z" fill="#E9ECEF"/>
<path d="M36.7987 122.25C14.3017 122.25 0 101.863 0 60.7684C0 19.9947 14.3017 0.25 36.7987 0.25C58.9743 0.25 73.276 19.9947 73.276 60.7684C73.276 101.863 58.9743 122.25 36.7987 122.25ZM36.7987 110.371C50.1362 110.371 59.135 95.4421 59.135 60.7684C59.135 26.5763 50.1362 11.9684 36.7987 11.9684C23.3005 11.9684 14.141 26.5763 14.141 60.7684C14.141 95.4421 23.3005 110.371 36.7987 110.371Z" fill="#E9ECEF"/>
</svg>
