<svg width="88" height="89" viewBox="0 0 88 89" fill="none" xmlns="http://www.w3.org/2000/svg">
<path d="M31.4245 9.09424C32.2662 10.8226 33.1079 12.8391 33.9496 14.5675C15.4317 26.6663 10.9424 39.6292 10.9424 45.1025C10.9424 46.2547 11.223 47.407 12.0647 47.9831C12.9065 48.5593 14.0288 49.1354 14.8705 49.1354C16.554 49.1354 18.2374 47.9831 21.6043 47.9831C28.8993 47.9831 39 50.8638 39 62.3864C39 74.7733 29.741 79.0942 22.7266 79.0942C16.2734 79.0942 7.29785e-06 75.3494 5.18108e-06 51.4399C3.37034e-06 30.9873 23.0072 11.9749 31.4245 9.09424Z" fill="#FFD26A"/>
<path d="M80.4245 9.09424C81.2662 10.8226 82.1079 12.8391 82.9496 14.5675C64.4317 26.6663 59.9424 39.6292 59.9424 45.1025C59.9424 46.2547 60.223 47.407 61.0647 47.9831C61.9065 48.5593 63.0288 49.1354 63.8705 49.1354C65.554 49.1354 67.2374 47.9831 70.6043 47.9831C77.8993 47.9831 88 50.8638 88 62.3864C88 74.7733 78.741 79.0942 71.7266 79.0942C65.2734 79.0942 49 75.3494 49 51.4399C49 30.9873 72.0072 11.9749 80.4245 9.09424Z" fill="#FFD26A"/>
</svg>
