<svg width="160" height="123" viewBox="0 0 160 123" fill="none" xmlns="http://www.w3.org/2000/svg">
<path d="M36.2885 122.25C14.1034 122.25 0 101.863 0 60.7684C0 19.9947 14.1034 0.25 36.2885 0.25C58.1566 0.25 72.26 19.9947 72.26 60.7684C72.26 101.863 58.1566 122.25 36.2885 122.25ZM36.2885 110.371C49.441 110.371 58.3151 95.4421 58.3151 60.7684C58.3151 26.5763 49.441 11.9684 36.2885 11.9684C22.9774 11.9684 13.9449 26.5763 13.9449 60.7684C13.9449 95.4421 22.9774 110.371 36.2885 110.371Z" fill="#E9ECEF"/>
<path d="M87.1062 120.003V111.495C123.553 79.229 140.192 55.6316 140.192 35.5658C140.192 22.0816 133.378 12.1289 118.958 12.1289C109.45 12.1289 101.21 18.0684 94.7125 25.7737L86.3138 17.5868C95.8217 7.15264 105.963 0.25 120.701 0.25C141.46 0.25 154.454 13.8947 154.454 34.9237C154.454 58.5211 136.23 82.4395 108.816 108.605C114.996 107.963 121.968 107.482 127.832 107.482H160V120.003H87.1062Z" fill="#E9ECEF"/>
</svg>
