<svg width="160" height="123" viewBox="0 0 160 123" fill="none" xmlns="http://www.w3.org/2000/svg">
<path d="M122.416 122.25C104.102 122.25 92.795 114.545 85.1509 106.037L92.4765 96.4053C99.3244 103.629 108.083 110.05 121.461 110.05C135.316 110.05 145.189 101.542 145.189 88.0579C145.189 73.9316 135.793 64.6211 108.88 64.6211V53.2237C132.927 53.2237 141.049 43.5921 141.049 30.75C141.049 19.5132 133.564 12.1289 121.461 12.1289C112.065 12.1289 103.784 16.9447 97.2541 23.6868L89.4507 14.2158C98.2096 6.18947 108.561 0.25 121.938 0.25C141.527 0.25 155.859 11.0053 155.859 29.7868C155.859 44.0737 147.578 53.5447 135.156 58.0395V58.6816C148.852 62.0526 160 72.4868 160 88.7C160 109.568 143.278 122.25 122.416 122.25Z" fill="#E9ECEF"/>
<path d="M36.4691 122.25C14.1736 122.25 0 101.863 0 60.7684C0 19.9947 14.1736 0.25 36.4691 0.25C58.446 0.25 72.6196 19.9947 72.6196 60.7684C72.6196 101.863 58.446 122.25 36.4691 122.25ZM36.4691 110.371C49.6871 110.371 58.6053 95.4421 58.6053 60.7684C58.6053 26.5763 49.6871 11.9684 36.4691 11.9684C23.0918 11.9684 14.0143 26.5763 14.0143 60.7684C14.0143 95.4421 23.0918 110.371 36.4691 110.371Z" fill="#E9ECEF"/>
</svg>
