<svg width="231" height="72" viewBox="0 0 231 72" fill="none" xmlns="http://www.w3.org/2000/svg">
<g clip-path="url(#clip0_145_369)">
<path d="M55.3 28.63V19.03H71.57V0H0V36.79H17.26V53.57H0V71.57H71.57V28.63H55.3Z" fill="#3CB8C8"/>
<path d="M0 36.79H21.89C27.76 36.79 37.89 60.98 42.1 60.98H21.92C16.33 60.98 8.91 36.79 0 36.79Z" fill="#FFD26A"/>
<path d="M42.2 13.99H60.67C63.06 13.99 64.79 19.03 71.57 19.03H51.51C47.59 19.03 46.31 13.99 42.21 13.99H42.2Z" fill="#FFD26A"/>
<path d="M71.57 19.03H51.71C47.59 19.03 28.81 60.97 22.04 60.97H42.1C46.02 60.97 65.32 19.03 71.57 19.03Z" fill="#FF7D3C"/>
<path d="M56.65 41.42V52.7C56.65 55.96 57.93 57.59 60.51 57.59C63.09 57.59 64.37 55.96 64.37 52.7V41.42H68.91V52.81C68.91 54.38 68.71 55.74 68.33 56.89C67.95 57.91 67.3 58.84 66.37 59.66C64.84 60.99 62.88 61.66 60.52 61.66C58.16 61.66 56.22 60.99 54.69 59.66C53.75 58.84 53.08 57.92 52.69 56.89C52.31 55.97 52.13 54.62 52.13 52.81V41.42H56.67H56.65Z" fill="#6C757D"/>
<path d="M56.65 41.42V52.7C56.65 55.96 57.93 57.59 60.51 57.59C63.09 57.59 64.37 55.96 64.37 52.7V41.42H68.91V52.81C68.91 54.38 68.71 55.74 68.33 56.89C67.95 57.91 67.3 58.84 66.37 59.66C64.84 60.99 62.88 61.66 60.52 61.66C58.16 61.66 56.22 60.99 54.69 59.66C53.75 58.84 53.08 57.92 52.69 56.89C52.31 55.97 52.13 54.62 52.13 52.81V41.42H56.67H56.65Z" fill="black" fill-opacity="0.2"/>
<path d="M86.07 44.77L82.32 46.77C81.73 45.56 80.99 44.95 80.12 44.95C79.7 44.95 79.35 45.09 79.05 45.36C78.75 45.64 78.61 45.99 78.61 46.42C78.61 47.17 79.49 47.92 81.23 48.66C83.64 49.7 85.26 50.65 86.1 51.53C86.93 52.41 87.35 53.58 87.35 55.06C87.35 56.96 86.65 58.55 85.25 59.82C83.89 61.03 82.25 61.64 80.32 61.64C77.02 61.64 74.69 60.03 73.32 56.81L77.2 55.01C77.74 55.95 78.15 56.55 78.43 56.81C78.98 57.32 79.64 57.58 80.41 57.58C81.94 57.58 82.71 56.88 82.71 55.48C82.71 54.67 82.12 53.92 80.93 53.22C80.47 52.99 80.01 52.77 79.56 52.55C79.1 52.34 78.64 52.11 78.17 51.88C76.85 51.23 75.92 50.59 75.38 49.94C74.69 49.12 74.35 48.06 74.35 46.77C74.35 45.06 74.94 43.65 76.11 42.53C77.31 41.41 78.76 40.85 80.47 40.85C82.99 40.85 84.86 42.15 86.08 44.75L86.07 44.77Z" fill="#6C757D"/>
<path d="M86.07 44.77L82.32 46.77C81.73 45.56 80.99 44.95 80.12 44.95C79.7 44.95 79.35 45.09 79.05 45.36C78.75 45.64 78.61 45.99 78.61 46.42C78.61 47.17 79.49 47.92 81.23 48.66C83.64 49.7 85.26 50.65 86.1 51.53C86.93 52.41 87.35 53.58 87.35 55.06C87.35 56.96 86.65 58.55 85.25 59.82C83.89 61.03 82.25 61.64 80.32 61.64C77.02 61.64 74.69 60.03 73.32 56.81L77.2 55.01C77.74 55.95 78.15 56.55 78.43 56.81C78.98 57.32 79.64 57.58 80.41 57.58C81.94 57.58 82.71 56.88 82.71 55.48C82.71 54.67 82.12 53.92 80.93 53.22C80.47 52.99 80.01 52.77 79.56 52.55C79.1 52.34 78.64 52.11 78.17 51.88C76.85 51.23 75.92 50.59 75.38 49.94C74.69 49.12 74.35 48.06 74.35 46.77C74.35 45.06 74.94 43.65 76.11 42.53C77.31 41.41 78.76 40.85 80.47 40.85C82.99 40.85 84.86 42.15 86.08 44.75L86.07 44.77Z" fill="black" fill-opacity="0.2"/>
<path d="M96.1 45.66V61.08H91.56V45.66H89.62V41.42H91.56V34.21H96.1V41.42H99.63V45.66H96.1Z" fill="#6C757D"/>
<path d="M96.1 45.66V61.08H91.56V45.66H89.62V41.42H91.56V34.21H96.1V41.42H99.63V45.66H96.1Z" fill="black" fill-opacity="0.2"/>
<path d="M124.01 34.56L120.19 36.82C119.48 35.58 118.8 34.78 118.15 34.4C117.48 33.97 116.61 33.75 115.55 33.75C114.24 33.75 113.16 34.12 112.3 34.86C111.44 35.59 111.01 36.5 111.01 37.61C111.01 39.13 112.14 40.36 114.4 41.28L117.51 42.55C120.04 43.57 121.89 44.82 123.06 46.3C124.23 47.78 124.82 49.58 124.82 51.72C124.82 54.59 123.86 56.96 121.95 58.83C120.03 60.71 117.64 61.66 114.78 61.66C112.07 61.66 109.84 60.86 108.08 59.26C106.34 57.66 105.26 55.4 104.83 52.5L109.59 51.45C109.8 53.28 110.18 54.55 110.72 55.24C111.69 56.59 113.1 57.26 114.96 57.26C116.43 57.26 117.64 56.77 118.61 55.79C119.58 54.81 120.06 53.56 120.06 52.06C120.06 51.45 119.98 50.9 119.81 50.39C119.64 49.89 119.38 49.42 119.02 49C118.66 48.58 118.2 48.18 117.64 47.81C117.08 47.44 116.4 47.09 115.62 46.75L112.61 45.5C108.34 43.7 106.21 41.06 106.21 37.59C106.21 35.25 107.1 33.29 108.89 31.72C110.68 30.13 112.91 29.34 115.57 29.34C119.16 29.34 121.97 31.09 123.99 34.59L124.01 34.56Z" fill="#6C757D"/>
<path d="M124.01 34.56L120.19 36.82C119.48 35.58 118.8 34.78 118.15 34.4C117.48 33.97 116.61 33.75 115.55 33.75C114.24 33.75 113.16 34.12 112.3 34.86C111.44 35.59 111.01 36.5 111.01 37.61C111.01 39.13 112.14 40.36 114.4 41.28L117.51 42.55C120.04 43.57 121.89 44.82 123.06 46.3C124.23 47.78 124.82 49.58 124.82 51.72C124.82 54.59 123.86 56.96 121.95 58.83C120.03 60.71 117.64 61.66 114.78 61.66C112.07 61.66 109.84 60.86 108.08 59.26C106.34 57.66 105.26 55.4 104.83 52.5L109.59 51.45C109.8 53.28 110.18 54.55 110.72 55.24C111.69 56.59 113.1 57.26 114.96 57.26C116.43 57.26 117.64 56.77 118.61 55.79C119.58 54.81 120.06 53.56 120.06 52.06C120.06 51.45 119.98 50.9 119.81 50.39C119.64 49.89 119.38 49.42 119.02 49C118.66 48.58 118.2 48.18 117.64 47.81C117.08 47.44 116.4 47.09 115.62 46.75L112.61 45.5C108.34 43.7 106.21 41.06 106.21 37.59C106.21 35.25 107.1 33.29 108.89 31.72C110.68 30.13 112.91 29.34 115.57 29.34C119.16 29.34 121.97 31.09 123.99 34.59L124.01 34.56Z" fill="black" fill-opacity="0.2"/>
<path d="M134.16 41.42V52.7C134.16 55.96 135.44 57.59 138.02 57.59C140.6 57.59 141.88 55.96 141.88 52.7V41.42H146.42V52.81C146.42 54.38 146.22 55.74 145.84 56.89C145.46 57.91 144.81 58.84 143.88 59.66C142.35 60.99 140.39 61.66 138.03 61.66C135.67 61.66 133.73 60.99 132.2 59.66C131.26 58.84 130.59 57.92 130.2 56.89C129.82 55.97 129.63 54.62 129.63 52.81V41.42H134.17H134.16Z" fill="#6C757D"/>
<path d="M134.16 41.42V52.7C134.16 55.96 135.44 57.59 138.02 57.59C140.6 57.59 141.88 55.96 141.88 52.7V41.42H146.42V52.81C146.42 54.38 146.22 55.74 145.84 56.89C145.46 57.91 144.81 58.84 143.88 59.66C142.35 60.99 140.39 61.66 138.03 61.66C135.67 61.66 133.73 60.99 132.2 59.66C131.26 58.84 130.59 57.92 130.2 56.89C129.82 55.97 129.63 54.62 129.63 52.81V41.42H134.17H134.16Z" fill="black" fill-opacity="0.2"/>
<path d="M152.15 41.42H156.69V43.18C157.52 42.3 158.26 41.71 158.91 41.38C159.57 41.04 160.35 40.88 161.25 40.88C162.45 40.88 163.7 41.27 165 42.05L162.92 46.21C162.06 45.59 161.22 45.28 160.4 45.28C157.92 45.28 156.69 47.15 156.69 50.89V61.08H152.15V41.42Z" fill="#6C757D"/>
<path d="M152.15 41.42H156.69V43.18C157.52 42.3 158.26 41.71 158.91 41.38C159.57 41.04 160.35 40.88 161.25 40.88C162.45 40.88 163.7 41.27 165 42.05L162.92 46.21C162.06 45.59 161.22 45.28 160.4 45.28C157.92 45.28 156.69 47.15 156.69 50.89V61.08H152.15V41.42Z" fill="black" fill-opacity="0.2"/>
<path d="M171.83 41.42L176.92 52.46L181.99 41.42H187.1L176.89 62.43L166.76 41.42H171.85H171.83Z" fill="#6C757D"/>
<path d="M171.83 41.42L176.92 52.46L181.99 41.42H187.1L176.89 62.43L166.76 41.42H171.85H171.83Z" fill="black" fill-opacity="0.2"/>
<path d="M207.36 52.32H193.27C193.39 53.94 193.92 55.22 194.85 56.18C195.78 57.12 196.97 57.59 198.42 57.59C199.55 57.59 200.49 57.32 201.23 56.78C201.96 56.24 202.78 55.25 203.71 53.79L207.54 55.93C206.95 56.94 206.32 57.8 205.66 58.52C205 59.24 204.29 59.83 203.54 60.3C202.79 60.76 201.97 61.1 201.1 61.32C200.22 61.53 199.28 61.64 198.25 61.64C195.32 61.64 192.96 60.7 191.18 58.81C189.4 56.91 188.51 54.4 188.51 51.26C188.51 48.12 189.37 45.64 191.09 43.71C192.83 41.81 195.13 40.86 197.99 40.86C200.85 40.86 203.17 41.78 204.85 43.63C206.52 45.46 207.35 48 207.35 51.24L207.33 52.31L207.36 52.32ZM202.7 48.61C202.07 46.19 200.54 44.98 198.12 44.98C197.57 44.98 197.05 45.06 196.57 45.23C196.09 45.4 195.64 45.64 195.25 45.96C194.85 46.28 194.51 46.66 194.23 47.1C193.95 47.54 193.73 48.05 193.58 48.61H202.7Z" fill="#6C757D"/>
<path d="M207.36 52.32H193.27C193.39 53.94 193.92 55.22 194.85 56.18C195.78 57.12 196.97 57.59 198.42 57.59C199.55 57.59 200.49 57.32 201.23 56.78C201.96 56.24 202.78 55.25 203.71 53.79L207.54 55.93C206.95 56.94 206.32 57.8 205.66 58.52C205 59.24 204.29 59.83 203.54 60.3C202.79 60.76 201.97 61.1 201.1 61.32C200.22 61.53 199.28 61.64 198.25 61.64C195.32 61.64 192.96 60.7 191.18 58.81C189.4 56.91 188.51 54.4 188.51 51.26C188.51 48.12 189.37 45.64 191.09 43.71C192.83 41.81 195.13 40.86 197.99 40.86C200.85 40.86 203.17 41.78 204.85 43.63C206.52 45.46 207.35 48 207.35 51.24L207.33 52.31L207.36 52.32ZM202.7 48.61C202.07 46.19 200.54 44.98 198.12 44.98C197.57 44.98 197.05 45.06 196.57 45.23C196.09 45.4 195.64 45.64 195.25 45.96C194.85 46.28 194.51 46.66 194.23 47.1C193.95 47.54 193.73 48.05 193.58 48.61H202.7Z" fill="black" fill-opacity="0.2"/>
<path d="M217.82 57.43L208.98 41.42H214.25L220.27 52.72L225.88 41.42H231.01L215.34 71.78H210.15L217.82 57.43Z" fill="#6C757D"/>
<path d="M217.82 57.43L208.98 41.42H214.25L220.27 52.72L225.88 41.42H231.01L215.34 71.78H210.15L217.82 57.43Z" fill="black" fill-opacity="0.2"/>
</g>
<defs>
<clipPath id="clip0_145_369">
<rect width="231" height="71.78" fill="white"/>
</clipPath>
</defs>
</svg>
