<svg width="80" height="81" viewBox="0 0 80 81" fill="none" xmlns="http://www.w3.org/2000/svg">
<g clip-path="url(#clip0_72_664)">
<path d="M61.8 32.25V21.53H80V0.25H0V41.37H19.28V60.13H0V80.25H80V32.25H61.8Z" fill="#9FECF4"/>
<path d="M0 41.3701H24.48C31.04 41.3701 42.36 68.4101 47.08 68.4101H24.52C18.28 68.4101 9.96 41.3701 0 41.3701Z" fill="#0A91A3"/>
<path d="M47.1602 15.8899H67.8002C70.4802 15.8899 72.4002 21.5299 80.0002 21.5299H57.5602C53.1602 21.5299 51.7602 15.8899 47.1602 15.8899Z" fill="#0A91A3"/>
<path d="M80.0001 21.53H57.8001C53.2001 21.53 32.2001 68.41 24.6401 68.41H47.0801C51.4801 68.41 73.0401 21.53 80.0401 21.53H80.0001Z" fill="#3CB8C8"/>
</g>
<defs>
<clipPath id="clip0_72_664">
<rect width="80" height="80" fill="white" transform="translate(0 0.25)"/>
</clipPath>
</defs>
</svg>
